<mxfile host="app.diagrams.net" agent="Mozilla/5.0 (Windows NT 10.0; Win64; x64) AppleWebKit/537.36 (KHTML, like Gecko) Chrome/128.0.0.0 Safari/537.36 OPR/114.0.0.0" version="24.8.6">
  <diagram name="Page-1" id="-5a_yTGB8BfFHetPTBox">
    <mxGraphModel dx="3700" dy="2105" grid="0" gridSize="10" guides="1" tooltips="1" connect="1" arrows="1" fold="1" page="1" pageScale="1" pageWidth="1654" pageHeight="1169" background="#000000" math="0" shadow="0">
      <root>
        <mxCell id="0" />
        <mxCell id="1" parent="0" />
        <mxCell id="bAGUh_GjZapJnkl1ijTH-9" value="" style="ellipse;whiteSpace=wrap;html=1;aspect=fixed;fillColor=#ff0000;strokeColor=#ff0000;" vertex="1" parent="1">
          <mxGeometry x="20" y="15" width="150" height="150" as="geometry" />
        </mxCell>
        <mxCell id="bAGUh_GjZapJnkl1ijTH-11" value="" style="rounded=0;whiteSpace=wrap;html=1;fillColor=#00FF00;" vertex="1" parent="1">
          <mxGeometry x="1182" y="36" width="433.07" height="433.07" as="geometry" />
        </mxCell>
        <mxCell id="bAGUh_GjZapJnkl1ijTH-12" value="" style="rounded=0;whiteSpace=wrap;html=1;rotation=0;fillColor=#ff0000;strokeColor=#FF0000;" vertex="1" parent="1">
          <mxGeometry x="1193" y="1060" width="405" height="60" as="geometry" />
        </mxCell>
        <mxCell id="bAGUh_GjZapJnkl1ijTH-13" value="" style="rounded=0;whiteSpace=wrap;html=1;rotation=-105;fillColor=#ff0000;strokeColor=#FF0000;" vertex="1" parent="1">
          <mxGeometry x="894" y="838" width="510.16" height="60" as="geometry" />
        </mxCell>
        <mxCell id="bAGUh_GjZapJnkl1ijTH-14" value="" style="ellipse;whiteSpace=wrap;html=1;aspect=fixed;fillColor=#ff0000;strokeColor=#ff0000;" vertex="1" parent="1">
          <mxGeometry x="13" y="998" width="150" height="150" as="geometry" />
        </mxCell>
      </root>
    </mxGraphModel>
  </diagram>
</mxfile>
